<?xml version="1.0" encoding="utf-8"?>
<!-- Generator: Adobe Illustrator 24.1.2, SVG Export Plug-In . SVG Version: 6.00 Build 0)  -->
<svg version="1.1" id="Layer_1" xmlns="http://www.w3.org/2000/svg" xmlns:xlink="http://www.w3.org/1999/xlink" x="0px" y="0px"
	 viewBox="0 0 700 700" style="enable-background:new 0 0 700 700;" xml:space="preserve">
<style type="text/css">
	.st0{opacity:0.5;fill:url(#SVGID_1_);}
	.st1{fill:#712B75;}
	.st2{fill:#C74B50;}
</style>
<linearGradient id="SVGID_1_" gradientUnits="userSpaceOnUse" x1="572.5207" y1="327.6595" x2="738.6815" y2="76.1635" gradientTransform="matrix(2.098234e-02 -3.0359 -1.2748 -8.811220e-03 687.1035 2234.5247)">
	<stop  offset="0" style="stop-color:#712B75;stop-opacity:0"/>
	<stop  offset="0.9553" style="stop-color:#712B75"/>
</linearGradient>
<path class="st0" d="M664.2,347.1c43,623.4-715.4-32.9-578.5-149.1c9.2-7.8,21.7-12,34.6-12.2c46.6-0.8,235.8-11.8,342.6-134.3
	c19.2-22,56-24.4,78.6-5C588.4,86.4,652.1,172.3,664.2,347.1z"/>
<path class="st1" d="M429.2,402.1c-31.7-7.2-107.3-56-110.2-84.5c63.1-18.1,85.4-48.3,93.1-64.9c1.9-4.2,2.2-9,0.8-13.4
	c-1.4-4.4-4.4-8.1-8.4-10.4c-33.7-20.6-72.8-30.4-112.3-28.1c-31.1-20.6-75.6-19.7-91.6-6.2c-9.4,8-4.8,23.2,8.1,33.7
	c-49.8,30.5-82.6,78.5-89.4,113.1C96.9,302,45,316.3,76.7,353.7c-31.6,37.3,19.8,51.9,42.4,13.1c6.2,40.2,39.7,91.5,92.5,117.4
	c10.1,4.9,20.7,8.8,31.6,11.6c-18.5,12.6-14.9,25.8-9.4,28.6c9,4.5,43.3-9.1,59.6-23.6l0,0c26.9-1.5,53.3-7.8,77.9-18.7
	c36.4-15.5,65.9-55.8,64.4-71.9C435.7,406.2,433,403,429.2,402.1L429.2,402.1z M312.2,237.3c9.1-0.2,15.4-5.6,16.1-8.4
	c0.1-0.4,0.1-0.5-0.7-1v0c-1.1-0.6-1.8-1.6-2.2-2.8c-0.3-1.2-0.2-2.5,0.5-3.5c0.6-1.1,1.6-1.8,2.8-2.2c1.2-0.3,2.4-0.1,3.5,0.5
	c4.1,2.1,6.2,6.8,5,11.3c-2.1,8.2-13.2,15.1-24.8,15.3h-0.1c-2.5,0-4.6-2-4.7-4.6C307.6,239.4,309.6,237.4,312.2,237.3L312.2,237.3z
	 M184.5,341.2c0-15.3,24.6-26.6,41.5-28.3c-0.9-26.3,4.1-52.4,14.4-76.5c0.5-1.1,1.5-2,2.6-2.4c1.2-0.4,2.4-0.4,3.5,0.2
	c2.3,1.1,3.3,3.8,2.2,6.1c-27.3,58.4-11.1,159.2,32.1,199.7c1,0.8,1.5,2,1.6,3.2c0.1,1.3-0.4,2.5-1.2,3.4c-0.9,0.9-2.1,1.4-3.3,1.5
	c-1.3,0-2.5-0.5-3.3-1.4c-18.3-17.2-32-43.8-40.2-73.5C216.2,370.8,184.5,356.4,184.5,341.2L184.5,341.2z M316.4,489
	c-10.2-5.8-22.7-14.5-26.8-22.1c-1.1-2.2-0.3-5,1.9-6.2c2.2-1.2,5-0.4,6.2,1.8c4.5,8.3,25.9,20.7,33.1,23.4
	C326.1,487.1,321.2,488.2,316.4,489L316.4,489z"/>
<path class="st2" d="M595.2,263.9L595.2,263.9c-13.3-5.7-27.5-9.2-41.9-10.3c-5.1-6.3-11.8-11-19.4-13.6c-7.6-2.6-15.8-3-23.7-1.2
	c-9.2,2.5-15.6,8.2-16.7,14.9c-0.4,2.9,0.1,5.9,1.6,8.4c-9.8,3.6-19.1,8.3-27.9,14c-11.1,6.9-20.6,16.3-27.7,27.3
	c-5-8.8-13.8-14.8-23.8-16.3c-3.3-0.5-6.7-0.1-9.7,1.3c-3,1.4-5.6,3.6-7.3,6.5c-1.9,3.5-3.7,10.8,3.5,21.4
	c-7.3,10.6-5.4,17.9-3.5,21.5c3.1,5.2,8.8,8.3,14.9,8c0.7,0,1.5,0,2.2-0.1v0c9.2-1.4,17.5-6.6,22.6-14.5c7.5,15.7,26.4,32,49.1,41.1
	c7.1,2.6,14.4,4.4,21.9,5.4c-1.9,2.5-3,5.5-3,8.7c-0.1,3.6,1.9,7,5.1,8.7c2,0.8,4.2,1.2,6.4,1.1c10.8,0,29.1-5.9,37.9-18.2
	c15.3-1.9,30.1-6.1,44.2-12.4c9.5-4.4,44.9-26.1,44.5-53.2C644.2,294,627.7,277.6,595.2,263.9z M555.1,351.8
	c-1.8,1.7-4.5,1.8-6.4,0.1c-16.5-16.8-19.8-51.7-7-73.3c1.3-2.2,4.1-2.9,6.3-1.6c2.2,1.3,2.9,4.1,1.6,6.3l0,0
	c-10.5,17.7-7.7,48.5,5.7,62.1C556.9,347.2,556.8,350,555.1,351.8z M590.4,292.4c-2.3,5.6-7.8,9.1-13.8,8.9h-0.1
	c-2.5,0-4.6-2-4.7-4.6c0-2.5,2-4.6,4.6-4.7c1.5,0,3-0.5,4.2-1.3c-1.1-1.8-0.8-4.1,0.7-5.6c1.5-1.5,3.8-1.8,5.6-0.7l0,0
	C589.8,286,591.3,289.3,590.4,292.4z"/>
</svg>
