<?xml version="1.0" encoding="utf-8"?>
<!-- Generator: Adobe Illustrator 24.1.2, SVG Export Plug-In . SVG Version: 6.00 Build 0)  -->
<svg version="1.1" id="Capa_1" xmlns="http://www.w3.org/2000/svg" xmlns:xlink="http://www.w3.org/1999/xlink" x="0px" y="0px"
	 viewBox="0 0 200 200" style="enable-background:new 0 0 200 200;" xml:space="preserve">
<style type="text/css">
	.st0{fill:#712B75;}
</style>
<g>
	<path class="st0" d="M38.3,14.9c0,0,6.9,5.1,10.5,9.6c0,0,8.2,13.1,10.2,21.7c-0.4,1.6-0.9,3.1-1.5,4.6l8.9-3c0,0-6.6-2.4-9.4-14.4
		c0,0,8.5,8.8,8.4,17.4c0,0,5.6-4.2,6-6.8c0,0-6.3-0.9-9.4-8.6c0,0-5.2-5.7-5.6-7.8c0,0-17.5-15-19.7-18.5L38.3,14.9z"/>
	<path class="st0" d="M48.6,67.7c0.7,8,8.2,22.4,7.4,33.9c0,0-2.2,22.1-3.8,28.8c0,0-5.6,24.2-1.6,33.3c0,0,2.6,7.4,12.9,7.6
		c0,0,5.3-1.1,10.2,7.6c1.3,2.3,21.9,5.1,27.8-29.7c0,0,7.4-45.4-25.3-64.8c0,0-7.8-6.6-0.5-11.6c0,0,9.2-5.3,12.8,4.2
		c2.6,6.9,6.9,17.1,15.2,19.1c0,0,12.3,3.1,20.1,11.1c0,0,16.5,11.4,35.2,6.5c7.9-2.4,14.7-7.7,18.9-14.8c0,0,10.3-13.4-11.2-19
		c0,0-51.1-12.2-68.8-33c-5.4-6.3-23-12-33.6,1.5C64.4,48.2,47,49,48.6,67.7z"/>
	<path class="st0" d="M48.6,67.7c0.7,8,8.2,22.4,7.4,33.9c0,0-2.2,22.1-3.8,28.8c0,0-5.6,24.2-1.6,33.3c0,0,2.6,7.4,12.9,7.6
		c0,0,5.3-1.1,10.2,7.6c1.3,2.3,21.9,5.1,27.8-29.7c0,0,7.4-45.4-25.3-64.8c0,0-7.8-6.6-0.5-11.6c0,0,9.2-5.3,12.8,4.2
		c2.6,6.9,6.9,17.1,15.2,19.1c0,0,12.3,3.1,20.1,11.1c0,0,16.5,11.4,35.2,6.5c7.9-2.4,14.7-7.7,18.9-14.8c0,0,10.3-13.4-11.2-19
		c0,0-51.1-12.2-68.8-33c-5.4-6.3-23-12-33.6,1.5C64.4,48.2,47,49,48.6,67.7z"/>
</g>
</svg>
