<?xml version="1.0" encoding="utf-8"?>
<!-- Generator: Adobe Illustrator 24.1.2, SVG Export Plug-In . SVG Version: 6.00 Build 0)  -->
<svg version="1.1" id="Layer_1" xmlns="http://www.w3.org/2000/svg" xmlns:xlink="http://www.w3.org/1999/xlink" x="0px" y="0px"
	 viewBox="0 0 700 700" style="enable-background:new 0 0 700 700;" xml:space="preserve">
<style type="text/css">
	.st0{opacity:0.5;fill:url(#SVGID_1_);}
	.st1{fill:#712B75;}
	.st2{fill:#C74B50;}
</style>
<linearGradient id="SVGID_1_" gradientUnits="userSpaceOnUse" x1="552.4031" y1="296.7597" x2="718.5639" y2="45.2636" gradientTransform="matrix(-2.8757 0.9736 0.4088 1.2075 2019.017 -513.6251)">
	<stop  offset="0" style="stop-color:#712B75;stop-opacity:0"/>
	<stop  offset="0.9553" style="stop-color:#712B75"/>
</linearGradient>
<path class="st0" d="M288.2,68.7c575.1-244.6,203,686.8,48.4,595.5c-10.4-6.2-18.5-16.6-22.9-28.7c-16-43.7-88.3-219-239-279.8
	c-27.1-10.9-41.4-44.9-30.5-72.6C66.7,225.7,126.9,137.3,288.2,68.7z"/>
<g>
	<path class="st1" d="M142.4,339.8c23.6-25.8,50.6-48,79.6-68c3.8-29.3,9.7-57.1,17.6-82.6c-45.3-6-112.1-4.8-133,35.9
		C88.2,261.2,116.3,308.4,142.4,339.8L142.4,339.8z"/>
	<path class="st2" d="M331.5,212.2c-25.1-8.9-50.1-16.1-78.4-20.9c-7,22-12.4,45.6-16.2,70.6C270.3,240.4,299.9,225.5,331.5,212.2
		L331.5,212.2z"/>
	<path class="st1" d="M350.2,204.6c31.8-12.2,63.2-21,92.8-26.1C421,116.4,387.5,76.6,350,76.6c-45.6,0-77.1,58.6-92.6,101.8
		C289,184,319.6,192.9,350.2,204.6L350.2,204.6z"/>
	<path class="st2" d="M368.7,212.1c32.2,13.6,62.7,29.4,94.4,49.8c-3.8-25.4-9.2-49.2-15.9-70.6
		C422.1,195.6,395.6,202.6,368.7,212.1L368.7,212.1z"/>
	<path class="st2" d="M368.7,487.9c27,9.5,53.5,16.6,78.5,20.8c6.7-21.5,12.1-45.2,15.9-70.6C431.9,458.1,401.5,474,368.7,487.9z"/>
	<path class="st2" d="M349.9,219c-40.5,15.9-79.1,36.2-115.3,60.6c-5.5,46.6-5.5,94.4,0,140.8c36.2,24.4,74.9,44.6,115.3,60.6
		c40.6-16,78.4-35.7,115.5-60.7c5.4-46.1,5.4-94.5,0-140.6C428.3,254.7,390.5,235,349.9,219L349.9,219z M350,416.4
		c-36.6,0-66.4-29.8-66.4-66.4s29.8-66.4,66.4-66.4c36.6,0,66.4,29.8,66.4,66.4C416.4,386.6,386.6,416.4,350,416.4z"/>
	<path class="st1" d="M222,428.2c-29-19.9-55.9-42.2-79.6-68c-26.1,31.3-54.2,78.6-35.7,114.7c20.8,40.6,87.1,42,132.9,35.9
		C232.4,487.4,226.3,461.7,222,428.2L222,428.2z"/>
	<path class="st1" d="M151.3,350c20.6,22.6,43.5,42.2,68.6,60.2c-4.1-41.7-3.8-81.5,0-120.5C194.8,307.9,171.8,327.4,151.3,350
		L151.3,350z"/>
	<path class="st1" d="M257.4,521.6C280,585.2,314,623.4,350,623.4c37.5,0,71.1-39.8,93-101.9c-29.6-5.2-61-14-92.8-26.1
		C320.3,506.9,289.5,516,257.4,521.6L257.4,521.6z"/>
	<path class="st2" d="M331.5,487.8c-30.9-13-60.5-27.8-94.4-49.6c4.6,30.6,9.3,49.6,15.9,70.5C281.3,504,306.4,496.7,331.5,487.8
		L331.5,487.8z"/>
	<path class="st2" d="M350,297.1c-29.2,0-52.9,23.7-52.9,52.9c0,29.2,23.8,52.9,52.9,52.9c29.2,0,52.9-23.7,52.9-52.9
		C402.9,320.8,379.2,297.1,350,297.1z"/>
	<path class="st1" d="M548.6,350c-18.9-20.9-42.2-41.2-68.5-60.1c3.7,38.4,3.9,79.6,0,120.3C506.4,391.2,529.7,370.9,548.6,350
		L548.6,350z"/>
	<path class="st1" d="M460.8,189.4c7.7,24.9,13.6,52.7,17.3,82.6c30.7,21.1,57.7,44,79.4,67.7c26.3-31.6,54.4-78.2,35.7-114.5
		C572.3,184.4,506.1,183.4,460.8,189.4L460.8,189.4z"/>
	<path class="st1" d="M557.5,360.3c-21.7,23.7-48.7,46.6-79.4,67.7c-3.8,29.9-9.7,57.7-17.3,82.6c13.4,1.7,26.4,2.9,38.6,2.9
		c47.7,0,81.1-13.7,93.9-38.6C611.9,438.5,583.8,391.9,557.5,360.3L557.5,360.3z"/>
</g>
</svg>
