<?xml version="1.0" encoding="utf-8"?>
<!-- Generator: Adobe Illustrator 24.1.2, SVG Export Plug-In . SVG Version: 6.00 Build 0)  -->
<svg version="1.1" id="Layer_1" xmlns="http://www.w3.org/2000/svg" xmlns:xlink="http://www.w3.org/1999/xlink" x="0px" y="0px"
	 viewBox="0 0 700 700" style="enable-background:new 0 0 700 700;" xml:space="preserve">
<style type="text/css">
	.st0{opacity:0.5;fill:url(#SVGID_1_);}
	.st1{fill:#C74B50;}
	.st2{fill:#712B75;}
</style>
<linearGradient id="SVGID_1_" gradientUnits="userSpaceOnUse" x1="552.4031" y1="296.7597" x2="718.5639" y2="45.2636" gradientTransform="matrix(-2.8757 0.9736 0.4088 1.2075 2019.017 -513.6251)">
	<stop  offset="0" style="stop-color:#712B75;stop-opacity:0"/>
	<stop  offset="0.9553" style="stop-color:#712B75"/>
</linearGradient>
<path class="st0" d="M288.2,68.7c575.1-244.6,203,686.8,48.4,595.5c-10.4-6.2-18.5-16.6-22.9-28.7c-16-43.7-88.3-219-239-279.8
	c-27.1-10.9-41.4-44.9-30.5-72.6C66.7,225.7,126.9,137.3,288.2,68.7z"/>
<g>
	<path class="st1" d="M153.4,436.7c-2.2-5-3.9-10.6-9-14c-8.4-6.2-21.3-3.9-26.9,5c-6.2,10.1,0,20.7,4.5,30.2
		c9.5,20.2,21.8,39.2,36.4,56c29.1,33,66.1,58.8,107.5,73.4c23.5,8.4,47.6,12.9,72.2,14c11.8,0.6,25.2,1.1,29.7-12.3
		c3.9-11.8-5-24.6-17.4-24.6c-44.2,0-88.5-14-124.9-39.8c-17.9-12.9-33.6-28-47-45.9c-6.7-9-12.9-18.5-17.9-28
		C158.5,446.2,155.7,441.7,153.4,436.7L153.4,436.7z"/>
	<path class="st2" d="M118.2,380.1c6.2-0.6,12.3-3.9,15.1-9.5c3.9-6.7,2.2-15.1,2.2-22.4c0-13.4,1.7-26.9,3.9-39.8
		c5-25.2,14.6-49.3,28-71.1c26.9-43.7,69.4-76.7,118.7-92.4c31.4-10.1,65.5-12.3,98-7.3l-7.3,29.1c-40.3-5.6-81.8,1.7-117.6,21.8
		c-9,5-17.4,10.6-25.2,16.8c-6.7,5.6-11.2,12.9-9,21.8c2.2,8.4,10.6,14,19.6,13.4c9.5-1.1,17.4-10.1,25.2-15.1
		c16.8-10.6,35.8-17.9,55.4-21.3c20.7-3.4,40.3-1.7,61,2.2c7.3,1.7,15.1-1.1,19.6-7.8c3.4-5,3.9-11.8,5.6-17.4
		c4.5-17.9,9.5-35.3,13.4-53.2c5-23.5-24.1-25.2-40.3-27.4c-19.6-2.8-39.2-2.8-58.8-1.1c-64.4,6.2-124.9,37.5-166.3,86.2
		c-20.7,24.1-37,52.1-47.6,82.3c-5.6,15.7-9,31.4-11.2,47.6c-1.1,8.4-1.7,16.2-2.2,24.6c-0.6,8.4-1.7,19.6,1.7,28
		C103,375.7,110.3,380.7,118.2,380.1L118.2,380.1z"/>
	<path d="M118.2,380.1C117.6,380.1,128.2,379.6,118.2,380.1z"/>
	<path d="M573.4,233.4C592.5,269.3,553.8,195.9,573.4,233.4z"/>
	<path class="st2" d="M573.4,233.4c-17.4-33-42-62.2-71.7-84.6c-6.7-5-14-11.8-22.4-11.8c-7.8,0-14.6,5-17.4,12.3
		c-6.7,17.9,15.7,26.9,26.3,36.4c16.8,14,31.4,30.8,42.6,48.7l-26.3,14c-7.3-10.6-15.1-20.7-24.1-29.7c-8.4-8.4-17.9-17.9-28.6-23
		c-9.5-4.5-20.7-0.6-25.2,9c-5,10.6,1.1,19,9.5,25.2c10.1,7.3,19,15.7,26.9,24.6s12.9,19,19,28.6c4.5,6.7,12.9,10.1,21.3,7.8
		c3.9-1.1,7.8-3.4,11.2-5.6c11.2-6.2,22.4-11.8,33.6-17.9c22.4,54.3,21.8,117-2.2,170.8c-21.3,46.5-58.8,85.1-105.9,107
		c-10.6,5-25.2,7.3-28,20.2c-2.8,13.4,10.1,25.2,23,21.8c12.3-3.4,24.1-9.5,35.3-15.7c11.2-6.2,21.8-12.9,31.9-20.7
		c40.9-30.8,71.7-73.9,87.9-122.6C610.4,364.5,604.8,292.8,573.4,233.4L573.4,233.4z"/>
	<path class="st1" d="M463.1,316.9c0-9.5-6.2-20.2-11.2-28c-5.6-9-12.3-17.4-19.6-24.6c-29.7-28.6-73.4-39.2-112.6-28.6
		c-23.5,6.2-44.8,20.2-60.5,38.6c-10.6-6.2-21.3-12.9-31.9-19c-3.9-2.2-7.8-5-12.3-7.3c-9-3.9-18.5-0.6-24.1,7.3
		c-15.7,24.1-24.1,54.9-25.8,82.9c-1.7,24.1,1.7,48.2,9,70.6c29.1,87.4,122.1,141.1,212.8,122.6c43.7-9,83.4-34.2,110.3-69.4
		c13.4-17.9,23.5-37.5,30.2-58.8c3.4-11.2,5.6-22.4,6.7-33.6c0.6-5.6,1.1-10.6,1.1-16.2c0-6.7,1.1-14.6-1.7-21.3
		c-4.5-10.1-17.4-14.6-26.9-9c-11.8,7.3-8.4,21.3-9,33c-1.1,23-7.3,45.4-17.9,65c-21.3,39.2-59.9,66.6-103.6,74.5
		c-45.4,7.8-92.4-5.6-126-36.4c-34.7-31.9-52.6-79-47-125.4c1.7-14.6,5.6-29.1,11.8-43.1l25.8,15.1c-24.1,59.9,5.6,129.9,65.5,154
		c57.1,23,124.9-2.8,151.8-58.2c5.6-11.2,10.1-26.3-3.9-34.2c-5-2.8-11.8-2.8-16.8-0.6c-6.7,3.4-9,9-11.2,15.7
		c-11.2,25.8-35.3,44.2-62.7,48.2c-25.8,3.9-52.6-5-71.1-24.1c-21.3-22.4-28-55.4-17.9-84c11.8-32.5,43.7-53.8,77.8-53.8
		c33.6,0.6,64.4,22.4,75.6,54.3c1.7,4.5,1.1,2.2,0,0C434,341.5,462.6,337,463.1,316.9L463.1,316.9z"/>
	<path class="st1" d="M342.2,306.2c-20.7,3.9-35.8,22.4-35.8,43.7c0,18.5,11.8,35.8,29.7,42c17.4,6.2,37.5,0.6,49.3-13.4
		c11.8-14.6,13.4-35.3,3.9-51C379.1,311.3,360.1,302.9,342.2,306.2L342.2,306.2z"/>
</g>
</svg>
