<?xml version="1.0" encoding="utf-8"?>
<!-- Generator: Adobe Illustrator 24.1.2, SVG Export Plug-In . SVG Version: 6.00 Build 0)  -->
<svg version="1.1" id="Layer_1" xmlns="http://www.w3.org/2000/svg" xmlns:xlink="http://www.w3.org/1999/xlink" x="0px" y="0px"
	 viewBox="0 0 700 700" style="enable-background:new 0 0 700 700;" xml:space="preserve">
<style type="text/css">
	.st0{opacity:0.6;fill:url(#SVGID_1_);}
	.st1{fill:#C74B50;}
</style>
<linearGradient id="SVGID_1_" gradientUnits="userSpaceOnUse" x1="223.0746" y1="27.1798" x2="478.7381" y2="414.1444" gradientTransform="matrix(-0.5 -0.866 0.866 -0.5 347.7191 712.4368)">
	<stop  offset="0" style="stop-color:#712B75;stop-opacity:0"/>
	<stop  offset="0.9553" style="stop-color:#712B75"/>
</linearGradient>
<circle class="st0" cx="325" cy="375" r="293.6"/>
<g>
	<path class="st1" d="M238.8,389.4c-2,2-2,2-2,3.9c0,13.8,23.6,13.8,23.6,13.8l92.5,3.9c0,0-23.6,17.7-21.6,27.6
		c2,9.8,7.9,15.7,7.9,15.7s7.9,2,13.8,2c0,0-13.8,11.8-5.9,25.6c7.9,13.8,21.6,11.8,21.6,11.8s-2,7.9,5.9,17.7s21.6,11.8,21.6,11.8
		s15.7,2,19.7,2c3.9,0,21.6,5.9,31.5,5.9c7.9,0,25.6-3.9,35.4,0c11.8,2,15.7,0,29.5,2c9.8,2,96.5,25.6,151.6,39.4l2-118.1
		l-137.8-15.7c0,0-15.7,0-21.6-17.7s-11.8-27.6-19.7-35.4c-7.9-7.9-17.7-27.6-17.7-27.6l-13.8-45.3V285c0,0-2-2-5.9-2
		c2-2,2-5.9,2-7.9c0-5.9-7.9-7.9-7.9-7.9s-27.6,0-39.4-2c-9.8-2-63-9.8-63-9.8s5.9-5.9,2-17.7s-19.7-15.7-23.6-21.6
		c-3.9-5.9-2-17.7-5.9-23.6c-3.9-5.9-11.8-17.7-15.7-23.6c-3.9-5.9-7.9-17.7-27.6-17.7c-17.7,0-41.3,11.8-92.5,7.9
		c-31.5-2-100.4-19.7-143.7-31.5v108.3l90.6,9.8c0,0,49.2,2,88.6,47.2c39.4,47.2,21.6,96.5,21.6,96.5H238.8 M386.4,373.6
		c-17.7,0-94.5-2-129.9,7.9c15.7-13.8,11.8-39.4,7.9-66.9c-3.9-31.5,51.2-25.6,51.2-25.6l35.4-2h84.6c0,2-2,2-2,3.9
		c-9.8,17.7-3.9,47.2,5.9,84.6C437.6,377.6,410,373.6,386.4,373.6z"/>
</g>
</svg>
